<svg width="12" height="14" viewBox="0 0 12 14" fill="none" xmlns="http://www.w3.org/2000/svg">
<path d="M6.00006 -2.61866e-07C5.47396 0.00486636 4.97096 0.216844 4.60006 0.59L0.30007 4.88C0.113819 5.06736 0.00927696 5.32081 0.00927698 5.585C0.00927699 5.84919 0.113819 6.10264 0.30007 6.29C0.393033 6.38373 0.503633 6.45812 0.625492 6.50889C0.747352 6.55966 0.878057 6.5858 1.01007 6.5858C1.14208 6.5858 1.27279 6.55966 1.39464 6.50889C1.5165 6.45812 1.6271 6.38373 1.72007 6.29L5.00006 3L5.00006 13C5.00006 13.2652 5.10542 13.5196 5.29296 13.7071C5.48049 13.8946 5.73485 14 6.00006 14C6.26528 14 6.51963 13.8946 6.70717 13.7071C6.89471 13.5196 7.00006 13.2652 7.00006 13L7.00006 3L10.2901 6.29C10.477 6.4783 10.7312 6.58462 10.9965 6.58556C11.2619 6.58649 11.5168 6.48198 11.7051 6.295C11.8934 6.10802 11.9997 5.8539 12.0006 5.58853C12.0016 5.32317 11.897 5.0683 11.7101 4.88L7.41006 0.59C7.03671 0.214412 6.52964 0.00223227 6.00006 -2.61866e-07Z" fill="#F5F5F5"/>
</svg>
