<svg width="44" height="30" viewBox="0 0 44 30" fill="none" xmlns="http://www.w3.org/2000/svg">
<path fill-rule="evenodd" clip-rule="evenodd" d="M10.506 28.7518C7.86923 29.9005 4.98068 30.2578 2.18354 29.8177C0.395723 29.5364 -0.435764 27.5946 0.226389 25.9103C0.888543 24.2259 2.81925 23.4696 4.6289 23.4453C5.74072 23.4304 6.84936 23.196 7.88853 22.7433C9.94214 21.8487 11.5563 20.1749 12.3758 18.0902C13.1954 16.0055 13.1532 13.6806 12.2586 11.627C11.8059 10.5878 11.1537 9.66121 10.3497 8.89312C9.04112 7.64293 8.14234 5.77431 8.80449 4.08997C9.46665 2.40564 11.3979 1.54993 12.8986 2.56143C14.1094 3.37746 15.1935 4.36532 16.1172 5.49234C16.3489 5.77515 16.7889 5.77516 17.0207 5.49235C19.1554 2.88747 22.1047 1.07679 25.3936 0.351837C28.6825 -0.373116 32.1197 0.0298462 35.1517 1.49584C38.1838 2.96184 40.6342 5.40556 42.1086 8.43355C42.9639 10.1901 43.4618 12.084 43.5894 14.0072C43.7432 16.3252 41.4393 17.7882 39.1692 17.2944C36.8991 16.8005 35.5817 14.4047 34.625 12.2877C34.5991 12.2303 34.5723 12.1732 34.5447 12.1165C33.8972 10.7868 32.8211 9.71366 31.4897 9.06989C30.1582 8.42612 28.6488 8.24916 27.2045 8.56752C25.7602 8.88587 24.4651 9.68101 23.5277 10.8249C22.5902 11.9688 22.065 13.3949 22.0366 14.8736C22.0082 16.3522 22.4783 17.7974 23.3711 18.9765C24.2639 20.1556 25.5275 20.9999 26.9585 21.3735C27.0195 21.3894 27.0807 21.4044 27.1421 21.4186C29.4058 21.9407 32.0138 22.7618 32.9439 24.8906C33.8741 27.0194 32.8923 29.5659 30.5892 29.8705C28.6784 30.1232 26.7236 30.007 24.8333 29.5135C21.5746 28.6628 18.6971 26.7401 16.664 24.0552C16.6164 23.9922 16.5215 23.9923 16.4738 24.0552C14.9338 26.0889 12.8861 27.715 10.506 28.7518Z" fill="white"/>
</svg>
