<svg width="44" height="31" viewBox="0 0 44 31" fill="none" xmlns="http://www.w3.org/2000/svg">
<path fill-rule="evenodd" clip-rule="evenodd" d="M10.506 29.2516C7.86923 30.4002 4.98068 30.7576 2.18354 30.3175C0.395723 30.0362 -0.435764 28.0944 0.226389 26.41C0.888543 24.7257 2.81925 23.9694 4.6289 23.9451C5.74072 23.9302 6.84936 23.6957 7.88853 23.2431C9.94214 22.3485 11.5563 20.6747 12.3758 18.59C13.1954 16.5053 13.1532 14.1804 12.2586 12.1268C11.8059 11.0876 11.1537 10.161 10.3497 9.3929C9.04112 8.14271 8.14234 6.27409 8.80449 4.58975C9.46665 2.90542 11.3979 2.04971 12.8986 3.06122C14.1094 3.87725 15.1935 4.8651 16.1172 5.99212C16.3489 6.27492 16.7889 6.27493 17.0207 5.99213C19.1554 3.38725 22.1046 1.57657 25.3935 0.85162C28.6825 0.126667 32.1196 0.529627 35.1517 1.99562C38.1837 3.46162 40.6342 5.90534 42.1086 8.93333C42.9638 10.6899 43.4618 12.5838 43.5894 14.507C43.7432 16.825 41.4392 18.288 39.1692 17.7941C36.8991 17.3003 35.5816 14.9045 34.625 12.7874C34.599 12.7301 34.5723 12.673 34.5446 12.6163C33.8972 11.2866 32.8211 10.2134 31.4896 9.56967C30.1581 8.9259 28.6488 8.74895 27.2045 9.0673C25.7602 9.38565 24.4651 10.1808 23.5276 11.3247C22.5902 12.4686 22.065 13.8947 22.0366 15.3733C22.0082 16.852 22.4782 18.2972 23.371 19.4763C24.2638 20.6553 25.5275 21.4996 26.9584 21.8732C27.0195 21.8892 27.0807 21.9042 27.1421 21.9184C29.4058 22.4405 32.0138 23.2616 32.9439 25.3904C33.8741 27.5192 32.8923 30.0657 30.5892 30.3703C28.6784 30.623 26.7236 30.5068 24.8332 30.0133C21.5746 29.1625 18.6971 27.2399 16.664 24.5549C16.6164 24.492 16.5215 24.492 16.4738 24.555C14.9338 26.5887 12.8861 28.2148 10.506 29.2516Z" fill="#15411F"/>
</svg>
